<svg xmlns="http://www.w3.org/2000/svg" viewBox="0 0 340 340"><g id="Layer_2" data-name="Layer 2"><path d="M86.1,156.523l-2.916,1.533A36.788,36.788,0,0,0,63.524,189.53L62.248,232.5c21.666,6.868,35.662-6.258,39.4-46.106Z" style="fill:#797996"/><path d="M89.7,196.648c-1.606,10.609-7.338,28.4-27.449,35.85l-2.9,97.5h42.3Z" style="fill:#595975"/><path d="M204.377,155.4l5.228,2.842a39.538,39.538,0,0,1,14.962,14.3l53.954,89.337s6.786,11.955-3.877,27.141L200.073,277.06Z" style="fill:#797996"/><rect x="93.084" y="307.068" width="106.63" height="22.932" style="fill:#464659"/><path d="M204.6,155.573l-5.815-3.184a14.71,14.71,0,0,1-6.265-3.431l-11.3-6.186-68.339-.208-12.512,6.49a14.719,14.719,0,0,1-6.3,3.266l-7.756,4.022,1.353,143.07s-.017,5.7,6.537,10.311a20.127,20.127,0,0,0,11.531,3.533l81.59.248a20.126,20.126,0,0,0,11.552-3.464c6.583-4.566,6.6-10.27,6.6-10.27Z" style="fill:#797996"/><path d="M216.485,210.823H198.963a10.45,10.45,0,0,0-10.449,10.45v.932h-5.936a16.544,16.544,0,0,0-16.544,16.544v74.029l27.667,8.213Z" style="fill:#595975"/><path d="M146.791,138.664l-26.318,27.315a192.774,192.774,0,0,0,13.86,25.285h24.916a192.89,192.89,0,0,0,13.861-25.285Z" style="fill:#cbd5ea"/><path d="M136.218,173.491l-1.882,17.771a198.339,198.339,0,0,0,12.455,17.378,198.339,198.339,0,0,0,12.455-17.378L156.465,165a16.239,16.239,0,0,0-11.267-1.531C138.944,164.964,136.218,173.491,136.218,173.491Z" style="fill:#ff6d8d"/><path d="M156.465,165l-2.647-24.992H139.765l-3.546,33.483C138.931,170.319,144.935,165.456,156.465,165Z" style="fill:#e5486e"/><path d="M164.2,132.121H129.383l-16.761,10.544a117.749,117.749,0,0,0,7.858,23.312l26.311-16.5,26.312,16.5a117.878,117.878,0,0,0,7.858-23.312Z" style="fill:#fff"/><path d="M241.422,256.927l-13.345-17.28,4.24,35.672,8.594-8.94A7.248,7.248,0,0,0,241.422,256.927Z" style="fill:#595975"/><polygon points="129.383 114.76 129.383 132.121 146.791 149.482 164.2 132.121 164.2 114.76 129.383 114.76" style="fill:#d69d95"/><path d="M196.776,285.393V226.655a15.832,15.832,0,0,1,15.832-15.832h3.877a15.832,15.832,0,0,1,15.832,15.832V261.12s-4.523,27.895-15.832,27.895A54.685,54.685,0,0,1,196.776,285.393Z" style="fill:#fff"/><path d="M218.047,277.4V228.284a3.634,3.634,0,0,0-3.312-3.693,3.5,3.5,0,0,0-3.688,3.5v52.59a4.6,4.6,0,0,1-3.81,4.544,12.753,12.753,0,0,1-2.091.173h-8.37v21.675h35.541V261.12Z" style="fill:#cbd5ea"/><path d="M196.776,312.778h-18.74v-73.2a9.37,9.37,0,0,1,9.37-9.37h9.37Z" style="fill:#fff"/><path d="M220.743,287.36l24.5-25.486,29.4,27.141-12.79,14.616s-20.964,9.073-29.537,3.437S220.743,287.36,220.743,287.36Z" style="fill:#797996"/><path d="M129.383,126.746a74.9,74.9,0,0,0,34.817,0V114.76H129.383Z" style="fill:#b77070"/><path d="M192.277,148.817c-6.838,22.305-25.2,61.593-45.942,80.233-21.54-19.215-39.089-57.44-46.205-79.858l-6.287,3.285c7.935,24.255,27.019,64.825,50.278,83.89a3.5,3.5,0,0,0,4.437,0c22.606-18.53,42.252-59.607,49.994-84.138Z" style="fill:#fff"/><path d="M108.518,72.105h4.918a0,0,0,0,1,0,0v30.369a0,0,0,0,1,0,0h-4.918a12.51,12.51,0,0,1-12.51-12.51V84.615a12.51,12.51,0,0,1,12.51-12.51Z" style="fill:#b77070"/><path d="M192.657,72.105h4.918a0,0,0,0,1,0,0v30.369a0,0,0,0,1,0,0h-4.918a12.51,12.51,0,0,1-12.51-12.51V84.615A12.51,12.51,0,0,1,192.657,72.105Z" transform="translate(377.722 174.579) rotate(-180)" style="fill:#b77070"/><path d="M146.791,10c-38.389,0-43.744,27.768-43.744,42.78s7.247,21.983,7.247,21.983h72.994s7.247-6.971,7.247-21.983S185.18,10,146.791,10Z" style="fill:#595975"/><path d="M181.657,64.878A39.545,39.545,0,0,0,175.2,53.009a9.624,9.624,0,0,0-10.955-2.859c-3.479,1.335-9.026,2.63-17.455,2.63s-13.975-1.3-17.454-2.63a9.624,9.624,0,0,0-10.955,2.859,39.573,39.573,0,0,0-6.457,11.869,30.4,30.4,0,0,0-1.631,9.885v16.7a30.079,30.079,0,0,0,8.937,21.668c11.8,11.413,43.32,11.413,55.12,0a30.079,30.079,0,0,0,8.937-21.668v-16.7A30.372,30.372,0,0,0,181.657,64.878Z" style="fill:#d69d95"/><path d="M135.444,84.173a3.5,3.5,0,0,1-3.5-3.5V77.425a3.5,3.5,0,1,1,7,0v3.248A3.5,3.5,0,0,1,135.444,84.173Z" style="fill:#b77070"/><path d="M158.234,84.173a3.5,3.5,0,0,1-3.5-3.5V77.425a3.5,3.5,0,1,1,7,0v3.248A3.5,3.5,0,0,1,158.234,84.173Z" style="fill:#b77070"/><path d="M146.791,106.554c-8.416,0-12.457-3.776-13.8-5.4a3.5,3.5,0,0,1,5.388-4.47c.4.48,2.671,2.869,8.416,2.869s8.019-2.389,8.416-2.868a3.5,3.5,0,0,1,5.388,4.469C159.248,102.778,155.207,106.554,146.791,106.554Z" style="fill:#b77070"/><path d="M223.745,330h5.549a20.9,20.9,0,0,0,15.732-7.139l16.828-19.23c-25.425,5.277-37.187-9.543-41.111-16.271l-15.566,16.194Z" style="fill:#595975"/><path d="M187.349,330h36.4V316.518a20.962,20.962,0,0,0-20.962-20.963h-5.419A20.962,20.962,0,0,0,176.4,316.518v2.534A10.949,10.949,0,0,0,187.349,330Z" style="fill:#d69d95"/><path d="M59.352,333.5H229.294a24.4,24.4,0,0,0,18.366-8.334l27.719-31.677a36.646,36.646,0,0,0,5.662-8.514c6.538-13.941.773-24.391.476-24.911l-53.953-89.336a43.092,43.092,0,0,0-16.287-15.565A323.438,323.438,0,0,1,167.7,130.188v-8.814a29.153,29.153,0,0,0,9.084-5.729,32.309,32.309,0,0,0,6.824-9.671h1.457a16.029,16.029,0,0,0,16.01-16.01V84.615a16.021,16.021,0,0,0-10.416-15,40.923,40.923,0,0,0,3.376-16.837c0-13.915-4.6-46.28-47.244-46.28S99.547,38.865,99.547,52.78a40.913,40.913,0,0,0,3.368,16.838,15.95,15.95,0,0,0-10.407,15v5.349a16.028,16.028,0,0,0,16.01,16.01h1.456a32.309,32.309,0,0,0,6.824,9.671,29.146,29.146,0,0,0,9.085,5.729v8.814c-14.2,10.368-28.51,17.647-44.328,24.77a40.345,40.345,0,0,0-21.53,34.468L55.854,329.9a3.5,3.5,0,0,0,3.5,3.6Zm37.232-7V315.009A24.214,24.214,0,0,0,106,316.878H172.9v2.174a14.337,14.337,0,0,0,2.091,7.448Zm123.661,0h-32.9a7.456,7.456,0,0,1-7.448-7.448v-2.534a17.483,17.483,0,0,1,17.463-17.463h5.419a17.483,17.483,0,0,1,17.462,17.463Zm-38.709-28.613V239.58a5.877,5.877,0,0,1,5.87-5.871h5.87V292.4A24.385,24.385,0,0,0,181.536,297.887Zm18.74-5.832v-65.4a12.346,12.346,0,0,1,12.332-12.332h3.877a12.347,12.347,0,0,1,12.333,12.332V273.91l-18.567,19.315a24.368,24.368,0,0,0-7.468-1.17ZM177,144.307a112.887,112.887,0,0,1-5.494,16.536l-19.126-11.99L164.7,136.569Zm-8.354,23.005c-2.058,4.368-4.4,8.821-7,13.322l-2.009-18.972Zm-21.853-13.7,5.3,3.323,3.544,33.462c-3.536,5.42-6.72,9.779-8.844,12.572-2.123-2.793-5.308-7.152-8.843-12.572l3.543-33.462Zm-13.908-22.944v-7.051a61.817,61.817,0,0,0,27.817,0v7.051l-13.909,13.871Zm61.192-46.053v5.349a9.024,9.024,0,0,1-8.1,8.964,34.831,34.831,0,0,0,.818-7.468V76.082c.064-.078.137-.174.2-.261A9.01,9.01,0,0,1,194.075,84.615ZM99.508,89.964V84.615a8.973,8.973,0,0,1,7.076-8.8c.071.09.144.184.21.265V91.46a34.9,34.9,0,0,0,.818,7.468A9.023,9.023,0,0,1,99.508,89.964Zm9.107-26.224c-.081.236-.152.474-.228.711a35.588,35.588,0,0,1-1.84-11.671c0-14.67,5.229-39.28,40.244-39.28s40.244,24.61,40.244,39.28a35.512,35.512,0,0,1-1.844,11.657c-.074-.232-.144-.466-.223-.7h0a42.712,42.712,0,0,0-7.038-12.924,13.068,13.068,0,0,0-14.939-3.935c-2.849,1.094-7.973,2.4-16.2,2.4s-13.351-1.3-16.2-2.4a13.066,13.066,0,0,0-14.938,3.935A42.675,42.675,0,0,0,108.615,63.74Zm13.05,46.873a26.676,26.676,0,0,1-7.871-19.153v-16.7a26.852,26.852,0,0,1,1.441-8.748A35.739,35.739,0,0,1,121.11,55.2a5.972,5.972,0,0,1,4.679-2.212,6.392,6.392,0,0,1,2.293.428c4.949,1.9,11.243,2.863,18.709,2.863s13.761-.963,18.708-2.863a6.089,6.089,0,0,1,6.973,1.784,35.7,35.7,0,0,1,5.875,10.814h0a26.815,26.815,0,0,1,1.441,8.747v16.7a26.672,26.672,0,0,1-7.871,19.153C161.585,120.607,132,120.607,121.665,110.613Zm7.221,25.955,12.319,12.285-19.127,11.99a112.967,112.967,0,0,1-5.494-16.536Zm5.066,25.094-2.01,18.972c-2.6-4.5-4.945-8.954-7-13.322Zm-66.93,27.972a33.338,33.338,0,0,1,17.789-28.48l14.707-7.729h0l10.748-5.59a127.711,127.711,0,0,0,6.983,19.491c.012.027.016.055.028.082a194.851,194.851,0,0,0,14.113,25.752.2.2,0,0,1,.019.022A199.726,199.726,0,0,0,144.1,210.873a3.5,3.5,0,0,0,5.389,0,199.971,199.971,0,0,0,12.687-17.691c0-.009.013-.014.018-.022a194.863,194.863,0,0,0,14.114-25.752c.012-.027.016-.055.027-.082a127.775,127.775,0,0,0,6.962-19.409l9.852,5.356,0,0,14.784,8.038a36.089,36.089,0,0,1,13.639,13.034l53.911,89.267c.348.66,4.037,8.117-.78,18.388a29.722,29.722,0,0,1-4.591,6.878l-27.72,31.677a17.407,17.407,0,0,1-13.1,5.943h-2.049v-9.982a24.444,24.444,0,0,0-10.43-20.02l30.95-32.2a3.5,3.5,0,0,0-5.047-4.85l-6.9,7.178V226.655a19.355,19.355,0,0,0-19.333-19.332h-3.877a19.354,19.354,0,0,0-19.332,19.332v.054h-5.87a12.885,12.885,0,0,0-12.87,12.871v67.952c0,.057.014.11.017.166q-.414,1.067-.729,2.18H106a16.541,16.541,0,0,1-9.538-2.868c-4.856-3.391-5.066-7.322-5.072-7.465L90.22,206.211a3.5,3.5,0,0,0-3.5-3.456h-.045a3.5,3.5,0,0,0-3.456,3.543l1.165,93.291c0,.265.082,5.708,5.2,10.77V326.5H62.958Z" style="fill:#3c3c4f"/></g></svg>